<svg xmlns="http://www.w3.org/2000/svg" width="222.139" height="214.368" viewBox="0 0 222.139 214.368">
  <g id="github" transform="translate(0.969 1.048)">
    <path id="Path_139" data-name="Path 139" d="M236.682,388.45c-4.755,4.572-5.408,8.534-5.672,15.1" transform="translate(-148.261 -231.963)" fill="none" stroke="#ffecec" stroke-miterlimit="10" stroke-width="2"/>
    <path id="Path_140" data-name="Path 140" d="M163.326,410.343c-.559.11-1.117.2-1.68.292-7.4,1.153-15.388,1.237-22.6-.979a22.052,22.052,0,0,1-11.319-7.411c-4.1-5.407-3.885-12.6-9.584-16.97-2.405-1.843-6.2-3.589-7.464-6.517-1.774-4.131,3.715-4.174,6.2-3.288a33.584,33.584,0,0,1,16.454,13.461c1.147,1.792,2.158,3.729,3.783,5.106a14.7,14.7,0,0,0,5.711,2.61,39.9,39.9,0,0,0,9.865,1.661,18.279,18.279,0,0,0,9.11-2.517" transform="translate(-79.05 -224.218)" fill="none" stroke="#ffecec" stroke-miterlimit="10" stroke-width="2"/>
    <path id="Path_141" data-name="Path 141" d="M225.007,458.4a29.313,29.313,0,0,0-1.4,11.724c.188,1.966.6,3.911.674,5.885a9.518,9.518,0,0,1-1.318,5.673,5.152,5.152,0,0,1-5.084,2.369" transform="translate(-140.731 -272.275)" fill="none" stroke="#ffecec" stroke-miterlimit="10" stroke-width="2"/>
    <path id="Path_142" data-name="Path 142" d="M375.67,400.278c19.363-5.953,36.005-16.1,49.389-31.227A110.351,110.351,0,0,0,451,315.24" transform="translate(-231.223 -189.773)" fill="none" stroke="#ffecec" stroke-miterlimit="10" stroke-width="2"/>
    <path id="Path_143" data-name="Path 143" d="M140.6,196.87a37.8,37.8,0,0,0-11.682,20.7,51.678,51.678,0,0,0,1.143,23.3c2.768,10.368,8.308,20.283,16.936,26.732,9.383,7.008,19,9.025,30.648,10.457" transform="translate(-89.229 -121.558)" fill="none" stroke="#ffecec" stroke-miterlimit="10" stroke-width="2"/>
    <path id="Path_144" data-name="Path 144" d="M153.772,126.27c-2.248,5.966-4.529,12.127-4.286,18.491a27.407,27.407,0,0,0,3.386,11.44" transform="translate(-101.497 -80.871)" fill="none" stroke="#ffecec" stroke-miterlimit="10" stroke-width="2"/>
    <path id="Path_145" data-name="Path 145" d="M157.25,124.992c3.949-2.119,8.846-.826,12.991.9a73.625,73.625,0,0,1,14.053,7.758c1.842,1.3,2.917,2.119,5.186,1.695,2.666-.492,5.284-1.161,7.967-1.58a102.691,102.691,0,0,1,33.6.343c2.815.5,5.613,1.119,8.372,1.852,1.634.424,1.736.631,2.986-.3a21.612,21.612,0,0,1,3.22-2.174,126.041,126.041,0,0,1,19.713-8.139c2.367-.75,5.647-1.818,7.98-.966" transform="translate(-105.96 -79.5)" fill="none" stroke="#ffecec" stroke-miterlimit="10" stroke-width="2"/>
    <path id="Path_146" data-name="Path 146" d="M378.833,125a42.351,42.351,0,0,1,.891,27.8c-.648,2.174.584,2.691,1.975,4.36a29.418,29.418,0,0,1,3.544,5.394,38.418,38.418,0,0,1,3.839,12.711c1.007,7.83.055,15.775-1.126,23.584-.9,5.932-1.979,12-5.046,17.169-3.352,5.661-8.867,9.813-14.829,12.648s-12.437,4.47-18.834,6.072l-8,2.013" transform="translate(-211.483 -80.14)" fill="none" stroke="#ffecec" stroke-miterlimit="10" stroke-width="2"/>
    <path id="Path_147" data-name="Path 147" d="M342.64,389.19c2.158.267,3.412,2.343,4.534,4.2a17.9,17.9,0,0,1,2,6.14c2.171,11.953,1.365,24.236.03,36.312-.277,2.542-.337,5.6,1.8,7,1.651,1.076,3.839.589,5.728.059" transform="translate(-212.281 -232.39)" fill="none" stroke="#ffecec" stroke-miterlimit="10" stroke-width="2"/>
    <path id="Path_148" data-name="Path 148" d="M89.933,53.63C72.054,63.341,57.894,79.243,49.1,97.5a117.25,117.25,0,0,0-9.315,28.227,131.62,131.62,0,0,0-2.064,14.94c-.392,4.8.107,9.809-.495,14.559-1.173,9.322,2.286,19.711,5.579,28.414A111.448,111.448,0,0,0,57.566,210.6C69.508,226.7,85.6,239.63,103.56,248.685a23.062,23.062,0,0,0,6.717,2.491,8.774,8.774,0,0,0,6.824-1.5" transform="translate(-36.992 -39.01)" fill="none" stroke="#ffecec" stroke-miterlimit="10" stroke-width="2"/>
    <path id="Path_149" data-name="Path 149" d="M156.6,35.308a94.683,94.683,0,0,1,62.738-15.677,187.889,187.889,0,0,1,20.745,3.813" transform="translate(-105.587 -19.125)" fill="none" stroke="#ffecec" stroke-miterlimit="10" stroke-width="2"/>
    <path id="Path_150" data-name="Path 150" d="M352.34,29.32c12.164,4.178,24.946,8.75,35.967,15.351,17.892,10.707,31.817,27.456,40.228,46.456s10.518,38.638,9.084,59.34" transform="translate(-217.843 -25)" fill="none" stroke="#ffecec" stroke-miterlimit="10" stroke-width="2"/>
  </g>
</svg>
