<svg xmlns="http://www.w3.org/2000/svg" width="207.77" height="152.346" viewBox="0 0 207.77 152.346">
  <g id="gmail" transform="translate(0.997 0.943)">
    <path id="Path_151" data-name="Path 151" d="M41.885,157.874c-5.1-38.676-8.276-78.164-1.037-116.511a47.476,47.476,0,0,1,3.8-12.782,19.179,19.179,0,0,1,9.247-9.34c5.584-2.412,12.006-1.14,17.943.153,5.142,1.118,10.77,2.565,13.661,6.928C87.7,29.7,87.7,34.018,87.7,38.052l-1.015,60.58-1.037,60.426c0,2.39-.265,5.174-2.207,6.578a7.831,7.831,0,0,1-4.414,1.03l-33.568.965a6.659,6.659,0,0,1-3.928-.7,4.368,4.368,0,0,1-1.5-4.582,13.5,13.5,0,0,1,2.339-4.385" transform="translate(-36.61 -17.285)" fill="none" stroke="#ffecec" stroke-miterlimit="10" stroke-width="2"/>
    <path id="Path_152" data-name="Path 152" d="M42.054,32.982c-4.944,6.578-3.906,16.049.309,23.065S53.4,68.084,60.019,72.952L134.7,127.875a5.807,5.807,0,0,0,8.828,0l62.082-49.047A104.83,104.83,0,0,0,224.682,61.2c5.275-6.863,8.828-15.348,8.011-24.118s-6.775-16.97-15.206-18.965c-7.879-1.886-15.934,1.8-23,5.723a238.891,238.891,0,0,0-52.173,39.312c-3.046,3.026-6.444,6.336-10.726,6.578S123.6,66.7,120.4,63.94L80.389,28.224A37.357,37.357,0,0,0,67.5,19.607c-4.966-1.579-11.145-.658-14.169,3.574" transform="translate(-34.02 -17.608)" fill="none" stroke="#ffecec" stroke-miterlimit="10" stroke-width="2"/>
    <path id="Path_153" data-name="Path 153" d="M108.762,24.6c-2.207,31.66-2.715,63.386-3.2,95.112L105.12,149.4c0,4.56.132,9.757,3.642,12.717a15.211,15.211,0,0,0,8.828,2.631,177.38,177.38,0,0,0,19.311.285c5.65-.241,11.7-.921,15.912-4.626,5.253-4.648,5.959-12.454,6.224-19.426,1.17-31.287.706-62.6-.684-93.862a57.4,57.4,0,0,0-1.744-13.594,19.576,19.576,0,0,0-7.614-11.138c-5.275-3.464-12.094-3.245-18.362-2.521a41.58,41.58,0,0,0-13.242,3.289,16.571,16.571,0,0,0-9,9.866" transform="translate(46.081 -15.435)" fill="none" stroke="#ffecec" stroke-miterlimit="10" stroke-width="2"/>
  </g>
</svg>
