<svg xmlns="http://www.w3.org/2000/svg" viewBox="0 0 730.02 925.76">
 
  <g id="Layer_13" data-name="Layer 13" fill="none">
    <path class="cls-1" d="M325.86,431.61c-7.28-4.09-9.23-14-7.37-22.12a35.15,35.15,0,0,1,26.1-25.85c6.35-1.4,13.3-1.07,18.86-4.46,5-3.05,7.95-8.7,9.07-14.45s.62-11.67.12-17.5c-19.62,9-45.11,2.8-58.33-14.29"/>
    <path class="cls-1" d="M449.78,424.63c-4.59.57-10.65,1.39-15.24,2-3.42.42-6.84.84-10.28,1-6.51.21-13.28-.63-19.33,1.8a3.87,3.87,0,0,0,1.12-5,5.29,5.29,0,0,1-1-1.91,3.12,3.12,0,0,1,1.12-2.28l4.28-4.67a6.48,6.48,0,0,0,1.43-2.44c1.44-4.69-4.47-.55-6.14.09a26.25,26.25,0,0,1-9.56,1.76c-2.77,0-5.67-.54-7.83-2.28a12.94,12.94,0,0,1-3.55-5.32,4.25,4.25,0,0,0-3.22-2.54l-15.63-2.71a.49.49,0,0,1-.2-.89,16,16,0,0,1,10-2.89c2.5.13,5.09.93,6.53,3.21a4.27,4.27,0,0,1,.67,2.2c.07,3.32-3.25,4.79-6.15,5a15.31,15.31,0,0,1-7.51-29.13"/>
    <path class="cls-1" d="M434.74,297.58c1.14,3,3.1,3.91,6.16,5a33.66,33.66,0,0,0,9.6,1.38c7.2.33,14.46.66,21.59-.4s14.21-3.62,19.59-8.42c-3.69-3.17-8.65-4.38-13.46-5.08a70,70,0,0,0-32.41,2.57,52.61,52.61,0,0,0-26.11,19c-6.56,9.29-9.52,20.78-9.89,32.14s1.69,22.68,4.44,33.71c1.24,5,2.62,10,2.42,15.07-.17,4.23-1.63,8.61-4.59,11.55a1.06,1.06,0,0,0,.7,1.79l10.51.66c.76.14,1.21-1,.77-1.65A2.74,2.74,0,0,0,422,404a20.8,20.8,0,0,0-10.81,1.66,2.55,2.55,0,0,0-1.45,1.69c-.26,1.14.54,1.8,1.34,2.26a12,12,0,0,0,12.16-.46A15.75,15.75,0,0,0,430,398.67a22.83,22.83,0,0,0-1.49-12.53"/>
    <path class="cls-1" d="M375.12,292.53c-3.93,5.72-11.78,6.23-18.31,5.82-14.48-1.43-41.51.75-52.8-7.62-2.52-4.4,12.67-9.36,20.56-11.07a24.85,24.85,0,0,1,5.15-.57c15,0,30.87,3.76,43.48,12,12.88,8,18.6,29.15,4.37,38.44-5.32-29.45-41.69-23.63-63.89-23.24"/>
    <path class="cls-1" d="M315.76,320.38A30.23,30.23,0,0,0,337.45,331c11.59.47,22.85-5.81,34.38-4.41-15-13.5-38.65-16.36-56.45-6.83"/>
    <path class="cls-1" d="M336.48,313.91a6.76,6.76,0,0,0-.92,6.18,10.09,10.09,0,0,0,4,5,11.84,11.84,0,0,0,10.89,1.44,9.45,9.45,0,0,0,5.94-8.92"/>
    <path class="cls-1" d="M480.11,327c-4-4.63-10.4-6.74-16.53-6.74s-12.11,1.91-17.8,4.21-11.22,5-17.09,6.82c5.22-.08,9.91,2.93,14.7,5a34.65,34.65,0,0,0,13.38,3.05A24.66,24.66,0,0,0,470,335.88c6.06-3.74,10-10.28,16-14.12a48.17,48.17,0,0,0-45-3.44C435,321,429.24,325,422.74,324.71"/>
    <path class="cls-1" d="M444.56,325c-1.43,2.13-.44,5.21,1.53,6.84s4.63,2.15,7.17,2.44a20.05,20.05,0,0,0,8.66-.53,8.93,8.93,0,0,0,6-5.87c.72-2.82-.83-6.23-3.64-7"/>
    <path class="cls-1" d="M431.52,374.17c-.91,6.53,2.26,13,6.2,18.25s8.76,9.95,12,15.69.07,17.46.07,17.46a77.37,77.37,0,0,1-31.37,10.59c-5.36.58-10.84.62-16,2.28-3.19,1-6.34,2.7-9.68,2.37s-6.19-2.65-9.17-4.29c-5.89-3.24-12.78-3.92-19.38-5.14s-13.51-3.3-17.86-8.41l-2.71-3.19a19.55,19.55,0,0,0,9.73,5.51c3.65.82,7.44.58,11.18.63a70.88,70.88,0,0,1,23.62,4.39,27,27,0,0,0,6.24,1.87c4,.46,7.9-1.58,11.6-3.23"/>
    <path class="cls-1" d="M344.77,420.49c1.8,5.92,6,10.84,10.46,15.08a69.54,69.54,0,0,0,26.95,16.18c10.11,3.09,21.21,3.31,31.17-.21,6.27-2.22,11.93-5.83,17.54-9.41,6-3.81,12.22-7.95,15.19-14.37"/>
    <path class="cls-1" d="M271,310.47l7.44,81.64c1.18,13,2.51,26.43,9.2,37.61"/>
    <path class="cls-1" d="M245,352.74c-18.76-2-33.26-14.79-39.7-32.53-2.93-8-3.82-16.84-7.7-24.48a34.65,34.65,0,0,0-18.49-16.55l-47.4,19.57c26.78-3,49.64-20.27,69.53-38.45s38.94-38.32,63.53-49.36"/>
    <path class="cls-1" d="M176.32,786.9c-14.18-9.11-20-27.69-18.1-44.43,2.06-18.25,11.7-34.77,21.48-50.16,8.89-14,18.73-27.3,28.91-40.36a90.51,90.51,0,0,0,13.61-24.45l12.28-33.39A89.51,89.51,0,0,0,240,554.47c-1.12-11.16,3.87-25.24-3.23-34.27-4.07-5.18-10.95-7-17.11-9.32-27.22-10.31-46.09-34.84-63.2-58.39-47.13-64.86-92.83-132.25-118.48-208.2-3.11-9.21-5.74-19.79-3.15-28.74A17.93,17.93,0,0,1,41,206.46c7.63-5.94,28.36-21.55,43-27.63Q225.5,120.11,370.65,70.89c15.05-5.1,30.62-10.19,46.48-9,23.37,1.7,43.43,16.51,62,30.74,1.69,1,10.17,11.46,19.15,15.31,9.14,3.91,19.09,7.19,25.6,14.7,4.68,5.41,7,12.43,11,18.4,4.31,6.5,10.46,11.63,14.78,18.13,3.06,4.6,2.48,9.71-.48,16.2A25.45,25.45,0,0,0,548.7,195L560,227.44a53.18,53.18,0,0,0,31.43,32.39c13.16,4.95,22.18,13.67,26.78,25.17a59.65,59.65,0,0,1-4.62,52.79c-6.85,11-17.82,21.29-16.73,34.23.93,11.14,10.87,19.45,21.13,23.9s21.58,6.4,31.28,12,17.79,16.5,15,27.33c-2.35,9.2-11.66,15-20.87,17.28s-18.9,2-28.14,4.19-18.66,7.66-21.38,16.76c-3.33,11.16,4.53,23.09,2.3,34.52-2.39,12.31-16.13,19.7-28.66,19.3s-24.06-6.57-35.06-12.6l4.26,2.42"/>
    <path class="cls-1" d="M629.89,830.14a120,120,0,0,0-70.58,7.07c-11.42,4.86-23.58,14.33-22.12,26.66,1.16,9.75,11,16.61,20.82,17.54,11.15,1.06,22.28-4,30.49-11.58s13.87-17.61,18.41-27.84c18-40.43,20.35-85.79,22.48-130-4.63,7-6.83,15.19-9.85,23s-7.27,15.63-14.44,19.9-17.89,3.48-22.34-3.58c-8.12-12.89,10.24-29.67,4.79-43.89-2.88,10.49-5.86,21.17-11.84,30.27s-15.55,16.5-26.41,17.06-22.31-7.52-23-18.38c-.63-10.37,7.81-18.93,16.22-25s18-11.91,21.82-21.57"/>
    <path class="cls-1" d="M514.7,307.85c2.83,6.82,3.09,14.39,3,21.77-.41,24.44-4.63,48.66-9.9,72.53-2.13,9.64-4.45,19.29-8.41,28.33s-14.29,21.44-14.29,21.44c-15.29,17.47-32.75,33.64-53.8,43.43s-46.21,12.58-67.53,3.38c-12.23-5.28-22.54-14.11-32.56-22.88-16.54-14.46-33.12-29.41-44.76-48.05l11.5,20.4c7.86,22.37,7.34,47.18,1,70s-18.3,43.84-32.69,62.69c-8.42,11-17.81,21.58-23.64,34.19s-7.59,28.08-.52,40c6.21,10.5,17.83,16.32,27,24.32,6.38,5.53,5.76,21.29,2.72,34a14.67,14.67,0,0,0,10.72,17.75l40.16,15.18c6.43,2.44,3.24,12.29-3.34,10.28-4-1.2-8-4-13.71-9.15-10.74-9.6-12.66-26-22.27-36.72-10-11.18-26.22-14.08-38.81-22.24-18-11.68-27.37-33.88-27.65-55.36s7.38-42.35,17.34-61.39,22.28-36.76,32.38-55.72c7-13.1,13-27.29,12.92-42.13-.14-31.38-26.63-56.37-34.37-86.78-6.24-24.55,1-52.07,18.49-70.39a6.93,6.93,0,0,0,1.84-3.59l4.18-24c-4.73-2.77-3-10.19.53-14.38,3.85-4.55,9.41-8.53,9.09-14.81-.31-5.9-5.75-10.18-11.64-9.69-10.6.89-15.22,11.95-13.86,21.29,1,7.15,4.82,13.59,6.7,20.56s1.23,15.6-4.66,19.78c5,4.92,14.06,1.74,17.75-4.19s3.69-13.34,4.13-20.31a134.09,134.09,0,0,1,40.17-87c23.49-22.72,28.07-30.46,60.73-31.44l.05,0a6.73,6.73,0,0,0,1.63-8.3C375,150.23,369.8,128.79,367,145.91a20.08,20.08,0,0,0,2.63,14c3.81,6.06,10,10.17,16.48,13.25s13,5.22,19.25,8.44c24.28,12.54,38.12,38.39,50.78,62.6s27.25,49.86,52.08,61.26c10,4.59,21.78,6.45,32,2.34,7.28-2.93,13.11-8.62,18-14.74,7.58-9.41,13.6-20.53,14.64-32.57,1.27-14.77-5-29-11.44-42.39-4.27-8.87-8.76-17.79-15.35-25.1s-15.61-12.93-25.44-13.38c-14-.65-26.25,8.91-39.67,13.05a53.74,53.74,0,0,1-52.66-13c-6.32-6.29-10.91-14.07-16.19-21.26s-11.61-14.06-19.9-17.36c-6.17-2.46-13.63-2.42-19.36.63a11.26,11.26,0,0,1-11.88-1c-6.27-4.59-15.79-10.91-23.4-13.25-12.5-3.83-26.42-4.23-38.39,1-21,9.21-31.41,33.39-33.53,56.18-2.09,22.53,2.11,42.58,1.09,65.11a.19.19,0,0,0,.35.11l17.42-46.46a145.16,145.16,0,0,1,21.88-38.86l27.83-35.37a22.59,22.59,0,0,1,3.34-4.55c14-14.81,36.2-29.73,55.73-33,20.51-3.41,42.71,1.86,58.24,15.68,14.34,12.76,23.1,32.27,40.59,40.15,6.37,2.88,13.39,3.92,20.1,5.86s13.49,5.09,17.43,10.85,5.39,13.29-.17,17.52"/>
    <path class="cls-1" d="M434.27,850.69c12.51-1.14,25.65-2.49,36-9.68s16.23-22.3,9.2-32.71c-5.9-8.73-19-11.93-20-23.59a17,17,0,0,1,5.36-13.62c8.1-7.84,19.22-8.59,29.79-9,8.45-.35,17.22-.68,24.74-4.54,14.46-7.43,19.65-28.51,10.29-41.8-8.18-11.61-24.07-16-31.75-28-6.37-9.89-5.46-23.44.72-33.44s17-16.61,28.35-19.53c5.79-1.48,12.16-2,17.35,1.61a9.84,9.84,0,0,1,4.31,8.48c-.51,8.5-11.91,10.65-19.58,7.77-13.59-5.11-22.67-19.07-24.38-33.5s3.11-29,10.82-41.34c7.15-11.43,13.12-3.55,14.18,4,.74,5.26-6,8.14-9.44,4.1l-8.59-10.07a6.44,6.44,0,0,0-4.22-2.81,31.21,31.21,0,0,0-9.79-.12c-12.21,1.83-17.75-3-24.69-9.52a18.89,18.89,0,0,1-6-11.31c-2.28-17.65,21.25-24.79,25.26-40.78,3.52-14-9.57-28.77-4.83-42.45,2.32-6.66,8.38-11.27,11.9-17.39s5.28-15-1.61-16.51"/>
    <path class="cls-1" d="M431.42,728.36c3.26,4.49,10.61,3.85,14.75.17s5.9-9.28,7.48-14.6L467,668.87c-1.19,6.18-2.37,12.62-.71,18.69s7.08,11.61,13.36,11.18c4.62-.31,8.56-3.75,10.76-7.82s3-8.74,3.69-13.31q-.17,17.39.16,34.78c.15,8.05.71,17,9.59,21.05a18.12,18.12,0,0,0,8,1.54c6.55-.18,12.33-3,17.85-6.22a1.72,1.72,0,0,1,2.54,1.86l-.7,3.12a.57.57,0,0,1-1.12-.16l3.8-57"/>
  </g>
</svg>
