<svg xmlns="http://www.w3.org/2000/svg" width="184.844" height="185.788" viewBox="0 0 184.844 185.788">
  <g id="linked" transform="translate(0.932 0.832)">
    <path id="Path_132" data-name="Path 132" d="M229.021,193.028a12.816,12.816,0,0,0-9.231,7.008,14.484,14.484,0,0,0,4.331,17.589,14.714,14.714,0,0,0,18.185-1.212,14.467,14.467,0,0,0,1.93-18,14.7,14.7,0,0,0-17.521-4.989" transform="translate(-188.706 -159.86)" fill="none" stroke="#ffecec" stroke-miterlimit="10" stroke-width="2"/>
    <path id="Path_133" data-name="Path 133" d="M244.017,311.4l-.039,23.28-.072,41.572-.02,10.392c0,1.15.506,3.724-.138,4.717-.73,1.124-1.671.617-2.877.425a51.555,51.555,0,0,0-19.287.519,1.967,1.967,0,0,1-2.848-2.316L218.686,365l-.076-41.647c0-2.581-.891-6.968.2-9.34.871-1.895,3.15-1.748,4.933-1.794,6.942-.18,13.89-.212,20.832-.327l-.178-.539" transform="translate(-188.598 -240.025)" fill="none" stroke="#ffecec" stroke-miterlimit="10" stroke-width="2"/>
    <path id="Path_134" data-name="Path 134" d="M341.8,316.82c.9,11.176,1.812,22.375,1.536,33.581-.349,14.191-2.591,28.357-1.68,42.522a5.563,5.563,0,0,0,.589,2.548,4.039,4.039,0,0,0,3.519,1.679,15.131,15.131,0,0,0,3.982-.82,36.83,36.83,0,0,1,19.944.046" transform="translate(-271.268 -243.708)" fill="none" stroke="#ffecec" stroke-miterlimit="10" stroke-width="2"/>
    <path id="Path_135" data-name="Path 135" d="M342.13,307.489l26.837-.154c-.03,0-.605,10.376.086,11.268a71.84,71.84,0,0,0,6.8-8c1.769-2.287,4.377-3.313,7.156-4.263a34.183,34.183,0,0,1,19.474-.791,21.564,21.564,0,0,1,10.944,6.207c3.716,4.263,4.8,10.127,5.511,15.737,2.493,19.709,2,39.654,1.506,59.513" transform="translate(-271.729 -235.41)" fill="none" stroke="#ffecec" stroke-miterlimit="10" stroke-width="2"/>
    <path id="Path_136" data-name="Path 136" d="M506.58,554.94q12.792-1.042,25.489-2.94" transform="translate(-382.101 -402.057)" fill="none" stroke="#ffecec" stroke-miterlimit="10" stroke-width="2"/>
    <path id="Path_137" data-name="Path 137" d="M453.8,431.158l.312.98c.987-15.4,2-30.908.2-46.24-.428-3.649-1.059-7.4-3.058-10.484a13.47,13.47,0,0,0-20.918-2.055c-2.96,3.048-1.572,7.654-1.549,11.516q.043,7.475.207,14.949.329,15.158,1.141,30.3a2.572,2.572,0,0,1-2.187.457" transform="translate(-329.328 -279.045)" fill="none" stroke="#ffecec" stroke-miterlimit="10" stroke-width="2"/>
    <path id="Path_138" data-name="Path 138" d="M308.664,266.046c-4.045,9.356-13.272,9.8-22.411,9.863l-83.681.709-41.842.359c-8.721.075-23.151-.49-28.011-9.059-1.9-3.349-2.013-7.377-2.075-11.219l-2.285-135.515c-.089-5.227-1.279-11.624,1.644-16.135a21.569,21.569,0,0,1,12.8-8.821c6.633-1.633,13.588-.751,20.388-.193,42.326,3.466,84.977-6.021,127.263-2,3.841.366,7.853.908,11,3.133,4.89,3.456,6.386,10.036,6.343,16.008-.076,10.111-1.161,19.755-.783,29.909l1.276,34.084,2.581,69C311.134,252.88,311.341,259.865,308.664,266.046Z" transform="translate(-128.045 -93.025)" fill="none" stroke="#ffecec" stroke-miterlimit="10" stroke-width="2"/>
  </g>
</svg>
