<svg xmlns="http://www.w3.org/2000/svg" width="788.93" height="1023.181" viewBox="0 0 788.93 1023.181">
  <g id="marta-line" transform="translate(1.287 1.493)">
    <path id="Path_41" data-name="Path 41" d="M265.88,316.266c-5.883-3.445-3.731-12.674.659-17.873s10.609-9.826,11.194-16.6c.933-9.664-11.866-16.405-20.622-12.226s-12.438,15.224-11.045,24.876c1.244,8.893,6,16.9,8.333,25.572s1.53,19.4-5.8,24.6c6.219,6.119,17.488,2.164,22.077-5.211s4.59-16.579,5.137-25.261A165.037,165.037,0,0,1,435.643,159.55" transform="translate(27.589 -32.958)" fill="none" stroke="#ffecec" stroke-miterlimit="10" stroke-width="3"/>
    <path id="Path_42" data-name="Path 42" d="M320.926,452.053c-9.055-5.075-11.48-17.413-9.167-27.512a43.718,43.718,0,0,1,32.463-32.152c7.9-1.741,16.542-1.331,23.458-5.547,6.219-3.793,9.888-10.821,11.281-17.973s.771-14.515.149-21.766C354.707,358.3,323,350.6,306.56,329.33" transform="translate(42.406 8.43)" fill="none" stroke="#ffecec" stroke-miterlimit="10" stroke-width="3"/>
    <path id="Path_44" data-name="Path 44" d="M448.2,436.271c4.067-7.127,2.289-16.306-1.741-23.445S436.418,399.879,431.53,393.3s-8.843-14.577-7.711-22.7" transform="translate(70.943 18.491)" fill="none" stroke="#ffecec" stroke-miterlimit="10" stroke-width="3"/>
    <path id="Path_45" data-name="Path 45" d="M383.859,133.252c-6.779-5.473-18-2.338-22.525,5.1s-3.172,17.413,1.592,24.739,12.363,12.289,20.224,16.045,16.169,6.5,23.943,10.5c30.2,15.6,47.413,47.749,63.159,77.86s33.893,62.015,64.776,76.194c12.438,5.709,27.089,8.035,39.8,2.91,9.055-3.644,16.306-10.721,22.388-18.333,9.4-11.7,16.866-25.5,18.209-40.51C617,269.4,609.206,251.685,601.2,235.031,595.885,224,590.3,212.916,582.1,203.824s-19.415-16.094-31.642-16.654c-17.413-.808-32.649,11.082-49.341,16.231a66.865,66.865,0,0,1-65.5-16.169c-7.861-7.836-13.57-17.512-20.137-26.455s-14.44-17.487-24.751-21.592-23.52-2.612-30.5,6.02" transform="translate(55.082 -40.043)" fill="none" stroke="#ffecec" stroke-miterlimit="10" stroke-width="3"/>
    <path id="Path_46" data-name="Path 46" d="M363.633,376a19.042,19.042,0,0,0,9.328,36.231c3.085-.2,6.517-1.555,7.463-4.49a6.07,6.07,0,0,0-2.2-6.219,11.1,11.1,0,0,0-6.542-2.2,19.777,19.777,0,0,0-13.52,4.465" transform="translate(53.654 19.807)" fill="none" stroke="#ffecec" stroke-miterlimit="10" stroke-width="3"/>
    <path id="Path_47" data-name="Path 47" d="M418.853,407.961c.945.174,1.5-1.244.958-2.052a3.358,3.358,0,0,0-2.55-1.132A25.634,25.634,0,0,0,405,406.344c-1.629.634-3.482,2.027-2.96,3.731a3.321,3.321,0,0,0,1.642,1.7,14.925,14.925,0,0,0,15.124-.572,19.589,19.589,0,0,0,8.42-12.973,28.507,28.507,0,0,0-1.853-15.584" transform="translate(65.659 21.428)" fill="none" stroke="#ffecec" stroke-miterlimit="10" stroke-width="3"/>
    <path id="Path_48" data-name="Path 48" d="M376.22,401.63c1.244,3.4,2.612,6.978,5.423,9.254s6.294,2.811,9.739,2.836a32.648,32.648,0,0,0,11.891-2.189c2.09-.8,9.54-6.02,7.6,0a11.119,11.119,0,0,1-2.649,3.893l-4.415,4.813a3.893,3.893,0,0,0-1.393,2.836,6.581,6.581,0,0,0,1.244,2.376,4.814,4.814,0,0,1-1.393,6.219c7.463-3.022,15.945-1.965,24.042-2.239,4.279-.149,8.532-.672,12.773-1.244l17.139-2.114a.634.634,0,0,0-.97-.373" transform="translate(59.387 26.055)" fill="none" stroke="#ffecec" stroke-miterlimit="10" stroke-width="3"/>
    <path id="Path_49" data-name="Path 49" d="M431.971,294.459c1.406,3.731,4.975,6.455,8.706,7.8a41.441,41.441,0,0,0,11.94,1.716c8.955.41,17.985.821,26.853-.5s17.674-4.5,24.365-10.473c-4.589-3.943-10.759-5.448-16.741-6.318a87.063,87.063,0,0,0-40.311,3.2,65.51,65.51,0,0,0-32.363,23.57c-8.159,11.555-11.841,25.846-12.3,39.975s2.1,28.209,5.522,41.928c1.542,6.219,3.259,12.438,3.01,18.744s-2.848,12.973-8.221,16.381" transform="translate(65.688 -2.221)" fill="none" stroke="#ffecec" stroke-miterlimit="10" stroke-width="3"/>
    <path id="Path_50" data-name="Path 50" d="M308.161,309.4c10.41.286,20.808-.958,31.219-1.02s21.144,1.107,30.373,5.883,16.878,13.682,17.873,24.042c8.06-4.975,11.741-15.485,10.112-24.876s-7.836-17.413-15.547-22.985-16.828-8.706-26.007-11.194c-9.95-2.624-20.348-4.391-30.684-3.731s-20.684,3.918-28.719,10.435" transform="translate(40.022 -4.722)" fill="none" stroke="#ffecec" stroke-miterlimit="10" stroke-width="3"/>
    <path id="Path_51" data-name="Path 51" d="M300.1,282.744c-2.687-1.244-5.162,2.96-3.731,5.547s4.577,3.52,7.463,4.129c19.092,4.1,38.731,4.739,58.234,5.348,4.726.149,9.54.274,14.055-1.095s8.706-4.565,10.112-9.08" transform="translate(39.82 -2.981)" fill="none" stroke="#ffecec" stroke-miterlimit="10" stroke-width="3"/>
    <path id="Path_52" data-name="Path 52" d="M308.093,318.317a37.649,37.649,0,0,0,26.965,13.271c14.428.572,28.433-7.226,42.773-5.5-18.657-16.791-48.072-20.348-70.211-8.495" transform="translate(42.664 3.871)" fill="none" stroke="#ffecec" stroke-miterlimit="10" stroke-width="3"/>
    <path id="Path_53" data-name="Path 53" d="M329.045,310.34a8.37,8.37,0,0,0-1.144,7.686,12.438,12.438,0,0,0,4.975,6.219,14.689,14.689,0,0,0,13.52,1.841,11.791,11.791,0,0,0,7.388-11.094" transform="translate(47.495 3.801)" fill="none" stroke="#ffecec" stroke-miterlimit="10" stroke-width="3"/>
    <path id="Path_54" data-name="Path 54" d="M486.343,326.54c-4.975-5.759-12.935-8.383-20.56-8.383s-15.075,2.376-22.139,5.236-13.955,6.219-21.256,8.482c6.492-.1,12.326,3.644,18.283,6.219a43.047,43.047,0,0,0,16.642,3.731,30.671,30.671,0,0,0,16.405-4.316c7.537-4.652,12.438-12.786,19.9-17.562a59.912,59.912,0,0,0-55.97-4.279c-7.388,3.3-14.565,8.246-22.649,7.948" transform="translate(68.841 3.882)" fill="none" stroke="#ffecec" stroke-miterlimit="10" stroke-width="3"/>
    <path id="Path_55" data-name="Path 55" d="M436.975,322.4c-1.779,2.649-.547,6.48,1.9,8.507s5.759,2.674,8.918,3.035a25.137,25.137,0,0,0,10.771-.647,11.194,11.194,0,0,0,7.463-7.3c.9-3.52-1.032-7.761-4.527-8.706" transform="translate(73.993 5.495)" fill="none" stroke="#ffecec" stroke-miterlimit="10" stroke-width="3"/>
    <path id="Path_56" data-name="Path 56" d="M335.91,416.21a24.315,24.315,0,0,0,12.1,6.853c4.54,1.02,9.254.721,13.905.784a88.021,88.021,0,0,1,29.366,5.46,33.85,33.85,0,0,0,7.774,2.326c4.975.572,9.875-1.53,14.477-3.582" transform="translate(49.561 29.609)" fill="none" stroke="#ffecec" stroke-miterlimit="10" stroke-width="3"/>
    <path id="Path_57" data-name="Path 57" d="M338.62,419.4c5.41,6.368,14,8.943,22.214,10.46s16.779,2.363,24.1,6.393c3.731,2.04,7.189,4.975,11.405,5.336s8.072-1.667,12.04-2.948c6.381-2.065,13.2-2.114,19.9-2.836A96.12,96.12,0,0,0,467.2,422.634" transform="translate(50.221 30.387)" fill="none" stroke="#ffecec" stroke-miterlimit="10" stroke-width="3"/>
    <path id="Path_58" data-name="Path 58" d="M337,416.92c2.239,7.363,7.463,13.483,13.01,18.756A86.493,86.493,0,0,0,383.53,455.8c12.574,3.843,26.38,4.117,38.768-.261,7.8-2.761,14.838-7.251,21.816-11.7,7.463-4.739,15.2-9.888,18.893-17.873" transform="translate(49.827 29.783)" fill="none" stroke="#ffecec" stroke-miterlimit="10" stroke-width="3"/>
    <path id="Path_59" data-name="Path 59" d="M263.18,306l9.353,102.7c1.468,16.169,3.122,32.873,11.443,46.778" transform="translate(31.831 2.743)" fill="none" stroke="#ffecec" stroke-miterlimit="10" stroke-width="3"/>
    <path id="Path_60" data-name="Path 60" d="M278.66,424.23c14.478,23.184,35.1,41.778,55.671,59.7,12.438,10.908,25.286,21.891,40.5,28.458,26.517,11.443,57.8,7.985,83.992-4.2s47.9-32.338,66.915-54.017" transform="translate(35.605 31.565)" fill="none" stroke="#ffecec" stroke-miterlimit="10" stroke-width="3"/>
    <path id="Path_61" data-name="Path 61" d="M474.08,485.971c9.8-7.388,16.878-17.923,21.791-29.167s7.811-23.246,10.46-35.236c6.555-29.677,11.8-59.813,12.313-90.211.162-9.179-.162-18.594-3.731-27.077" transform="translate(83.243 2.324)" fill="none" stroke="#ffecec" stroke-miterlimit="10" stroke-width="3"/>
    <path id="Path_62" data-name="Path 62" d="M390.182,147.674c-13.134-9.59-27.164-18.333-42.711-23.1s-32.861-5.261-47.749,1.244c-26.119,11.455-39.067,41.53-41.7,69.875s2.587,56.9,1.157,85.336" transform="translate(30.388 -42.363)" fill="none" stroke="#ffecec" stroke-miterlimit="10" stroke-width="3"/>
    <path id="Path_63" data-name="Path 63" d="M565.966,202.071c6.915-5.261,6.978-16.356,2.077-23.532s-13.333-11.07-21.679-13.495-17.077-3.731-25-7.276c-21.754-9.813-32.649-34.079-50.485-49.95-19.316-17.177-46.953-23.744-72.437-19.5s-48.768,18.657-65.982,37.9" transform="translate(48.72 -50.628)" fill="none" stroke="#ffecec" stroke-miterlimit="10" stroke-width="3"/>
    <path id="Path_64" data-name="Path 64" d="M494.142,430.19c8.57,1.878,9.6,14.341,5.236,21.953s-11.915,13.346-14.8,21.629c-5.9,17.015,10.386,35.336,6.008,52.8-4.689,18.656-30.858,27.674-31.592,46.94-.373,9.689,6.517,18.495,14.925,23.246s18.308,6.219,27.91,7.687" transform="translate(79.562 33.018)" fill="none" stroke="#ffecec" stroke-miterlimit="10" stroke-width="3"/>
    <path id="Path_65" data-name="Path 65" d="M529.778,578.275l-5.3-3.01c13.682,7.463,28.01,15.186,43.607,15.672s32.674-8.706,35.659-24c2.761-14.216-7.015-29.055-2.861-42.948,3.371-11.306,15.087-18.147,26.579-20.833s23.545-2.376,35-5.211,23.035-10.05,25.958-21.492c3.445-13.47-6.617-27.089-18.657-34s-26.119-9.341-38.905-14.863-25.124-15.871-26.281-29.726c-1.356-16.094,12.288-28.856,20.808-42.574A72.973,72.973,0,0,0,581.644,246.1" transform="translate(95.53 -11.859)" fill="none" stroke="#ffecec" stroke-miterlimit="10" stroke-width="3"/>
    <path id="Path_66" data-name="Path 66" d="M31.363,205.23c-8.98,12.438-5.05,29.627-.149,44.142,31.9,94.527,88.743,178.283,147.363,258.954,21.281,29.291,44.776,59.8,78.607,72.624,7.662,2.9,16.169,5.162,21.281,11.592C290.69,608.089,274.1,635.688,288.725,649" transform="translate(-25.99 -21.822)" fill="none" stroke="#ffecec" stroke-miterlimit="10" stroke-width="3"/>
    <path id="Path_67" data-name="Path 67" d="M579,96.2c-23.147-17.7-48.1-36.069-77.114-38.234-19.726-1.418-39.092,4.975-57.811,11.256Q263.725,130.394,87.582,203.478C64.821,212.906,40.443,224,29,245.742" transform="translate(-25.256 -57.77)" fill="none" stroke="#ffecec" stroke-miterlimit="10" stroke-width="3"/>
    <path id="Path_68" data-name="Path 68" d="M562.072,199.721c5.423-8.047,2.711-19.216-2.662-27.3s-13.022-14.465-18.383-22.562c-4.9-7.463-7.8-16.169-13.682-22.873-8.085-9.341-20.5-13.383-31.841-18.283S472.445,96.488,469,84.61" transform="translate(82.005 -51.227)" fill="none" stroke="#ffecec" stroke-miterlimit="10" stroke-width="3"/>
    <path id="Path_69" data-name="Path 69" d="M124.05,316.586c33.308-3.731,61.741-25.211,86.48-47.823s48.433-47.661,79-61.393" transform="translate(-2.086 -21.301)" fill="none" stroke="#ffecec" stroke-miterlimit="10" stroke-width="3"/>
    <path id="Path_70" data-name="Path 70" d="M171.45,275.62a43.084,43.084,0,0,1,23,20.572c4.826,9.5,5.933,20.435,9.565,30.46A64.589,64.589,0,0,0,256.6,367.858" transform="translate(9.469 -4.663)" fill="none" stroke="#ffecec" stroke-miterlimit="10" stroke-width="3"/>
    <path id="Path_71" data-name="Path 71" d="M269.169,311.67c-23.022,22.761-32.823,58.047-24.876,89.427,9.627,37.823,42.562,68.905,42.749,107.935.087,18.47-7.4,36.069-16.07,52.4-12.562,23.632-27.885,45.622-40.273,69.3s-21.915,49.627-21.567,76.355,11.953,54.328,34.39,68.855c15.659,10.149,35.821,13.756,48.271,27.662,11.953,13.346,14.341,33.731,27.7,45.671,17.488,15.634,44.627,9.95,67.164,3.209" transform="translate(18.653 4.125)" fill="none" stroke="#ffecec" stroke-miterlimit="10" stroke-width="3"/>
    <path id="Path_72" data-name="Path 72" d="M223.552,638.35a565.646,565.646,0,0,0-49.253,67.4c-11.095,17.786-21.393,36.828-23.744,57.661s4.876,43.943,22.512,55.261" transform="translate(4.271 83.762)" fill="none" stroke="#ffecec" stroke-miterlimit="10" stroke-width="3"/>
    <path id="Path_73" data-name="Path 73" d="M322.9,676.26" transform="translate(41.877 93.003)" fill="none" stroke="#ffecec" stroke-miterlimit="10" stroke-width="3"/>
    <path id="Path_74" data-name="Path 74" d="M522.21,753.025,527.533,673" transform="translate(94.976 92.209)" fill="none" stroke="#ffecec" stroke-miterlimit="10" stroke-width="3"/>
    <path id="Path_75" data-name="Path 75" d="M647.388,860.784a149.254,149.254,0,0,0-87.773,8.794c-14.2,6.044-29.3,17.86-27.512,33.171,1.443,12.114,13.682,20.647,25.9,21.8,13.868,1.318,27.7-4.975,37.923-14.4s17.251-21.891,22.9-34.627c22.388-50.286,25.311-106.7,27.96-161.691-5.759,8.706-8.495,18.893-12.251,28.607s-9.042,19.428-17.96,24.739-22.251,4.328-27.786-4.453c-10.1-16.032,12.736-36.9,5.958-54.589-3.595,13.047-7.289,26.331-14.726,37.649S560.672,766.307,547.165,767s-27.749-9.353-28.607-22.861c-.784-12.9,9.714-23.545,20.174-31.094s22.388-14.813,27.139-26.828" transform="translate(94.076 95.431)" fill="none" stroke="#ffecec" stroke-miterlimit="10" stroke-width="3"/>
    <path id="Path_76" data-name="Path 76" d="M304.9,444.63c9.764,27.823,9.129,58.681,1.244,87.064s-22.761,54.527-40.659,77.972c-10.473,13.681-22.152,26.841-29.4,42.525s-9.44,34.938-.647,49.751c7.724,13.06,22.177,20.3,33.582,30.249s20.46,26.828,12.724,39.888" transform="translate(23.668 36.538)" fill="none" stroke="#ffecec" stroke-miterlimit="10" stroke-width="3"/>
    <path id="Path_77" data-name="Path 77" d="M647.962,597.026c-10.05-.933-18.047,10.622-16.169,20.547s10.784,17.239,20.323,20.572a46.878,46.878,0,0,0,60.149-58.457c-5.56-17.537-21.007-30.361-37.674-38.159a115.671,115.671,0,0,0-147.139,43.3c-9.59,15.3-15.585,33.483-13.458,51.418s13.408,35.311,30.323,41.666c9.254,3.483,22.873,1.057,24.254-8.706.833-5.883-3.731-11.517-9.3-13.607s-11.779-1.343-17.537.124c-14.167,3.632-27.562,11.853-35.261,24.291s-8.818,29.291-.9,41.592c9.552,14.838,29.316,20.336,39.49,34.826,11.642,16.53,5.186,42.748-12.8,51.99-9.353,4.8-20.261,5.211-30.771,5.659s-21.455,1.119-30.572,6.356-15.684,16.492-12.152,26.393c3.918,10.92,17.413,15.137,23.918,24.764,8.706,12.948,1.368,31.741-11.443,40.684s-29.167,10.634-44.776,12.04" transform="translate(71.637 57.486)" fill="none" stroke="#ffecec" stroke-miterlimit="10" stroke-width="3"/>
    <path id="Path_78" data-name="Path 78" d="M550.187,737.26c-6.716,4.067-13.619,8.209-21.331,9.7s-16.53-.187-21.592-6.219c-4.826-5.734-5.261-13.856-5.4-21.343q-.41-21.629-.2-43.259c-.908,5.684-1.866,11.492-4.59,16.555s-7.637,9.341-13.383,9.726c-7.811.535-14.552-6.356-16.617-13.906s-.6-15.56.883-23.246l-16.642,56.082c-1.965,6.617-4.142,13.582-9.3,18.159s-14.291,5.373-18.346-.211" transform="translate(70.955 90.324)" fill="none" stroke="#ffecec" stroke-miterlimit="10" stroke-width="3"/>
  </g>
</svg>
