<svg id="mylinetobedrawn" xmlns="http://www.w3.org/2000/svg" viewBox="0 0 1685.11 7338.49">
  
  <g id="Layer_25" data-name="Layer 25">
    <path class="cls-1" d="M308,285c13.22,17.09,38.71,23.33,58.33,14.28.5,5.84,1,11.76-.12,17.51s-4.08,11.4-9.08,14.45c-5.55,3.39-12.5,3.06-18.85,4.45a35.16,35.16,0,0,0-26.1,25.86c-1.87,8.12.09,18,7.36,22.12"/>
    <path class="cls-1" d="M443.48,376.66c-4.59.57-10.65,1.39-15.24,2-3.41.42-6.83.84-10.27,1-6.51.21-13.29-.63-19.33,1.8a3.87,3.87,0,0,0,1.12-5,5.29,5.29,0,0,1-1-1.91,3.12,3.12,0,0,1,1.12-2.28l4.27-4.67a6.37,6.37,0,0,0,1.44-2.44c1.44-4.69-4.47-.55-6.14.09a26.31,26.31,0,0,1-9.57,1.76c-2.76,0-5.66-.54-7.82-2.29a12.8,12.8,0,0,1-3.55-5.31,4.27,4.27,0,0,0-3.22-2.54l-15.64-2.71a.49.49,0,0,1-.19-.89,16,16,0,0,1,10-2.89c2.51.13,5.09.93,6.54,3.21a4.27,4.27,0,0,1,.67,2.2c.06,3.32-3.25,4.79-6.16,5a15.31,15.31,0,0,1-7.5-29.13"/>
    <path class="cls-1" d="M428.45,249.61c1.13,3,3.1,3.91,6.16,5a33.66,33.66,0,0,0,9.6,1.38c7.2.33,14.46.66,21.59-.4S480,252,485.39,247.16c-3.69-3.17-8.65-4.38-13.46-5.08a70,70,0,0,0-32.41,2.57,52.68,52.68,0,0,0-26.12,19c-6.56,9.29-9.51,20.78-9.89,32.14s1.7,22.68,4.45,33.71c1.24,4.95,2.62,10,2.42,15.07-.17,4.23-1.64,8.61-4.59,11.55a1.06,1.06,0,0,0,.7,1.79l10.51.66c.76.13,1.21-1,.77-1.65a2.74,2.74,0,0,0-2-.92,20.69,20.69,0,0,0-10.81,1.66,2.5,2.5,0,0,0-1.45,1.69c-.26,1.14.54,1.79,1.33,2.26a12,12,0,0,0,12.17-.46,15.75,15.75,0,0,0,6.77-10.43,23,23,0,0,0-1.49-12.54"/>
    <path class="cls-1" d="M368.83,244.56c-3.93,5.72-11.78,6.23-18.31,5.81-14.48-1.42-41.51.76-52.8-7.61-2.52-4.4,12.67-9.36,20.56-11.07a24.85,24.85,0,0,1,5.15-.57c15.05,0,30.87,3.76,43.48,12,12.88,8,18.6,29.15,4.37,38.44-5.32-29.45-41.69-23.63-63.89-23.24"/>
    <path class="cls-1" d="M309.47,272.4a30.2,30.2,0,0,0,21.68,10.67c11.6.47,22.86-5.81,34.39-4.41-15-13.5-38.65-16.36-56.45-6.84"/>
    <path class="cls-1" d="M330.19,265.94a6.7,6.7,0,0,0-.92,6.18,10.12,10.12,0,0,0,4,5,11.87,11.87,0,0,0,10.9,1.44,9.46,9.46,0,0,0,5.93-8.93"/>
    <path class="cls-1" d="M473.82,279c-4-4.63-10.4-6.74-16.53-6.74s-12.12,1.91-17.8,4.21-11.22,5-17.09,6.82c5.22-.08,9.9,2.93,14.69,5a34.88,34.88,0,0,0,13.39,3.05,24.75,24.75,0,0,0,13.19-3.47c6.06-3.74,10-10.28,16-14.12a48.18,48.18,0,0,0-45-3.44C428.72,273,423,277,416.45,276.74"/>
    <path class="cls-1" d="M438.27,277c-1.43,2.13-.44,5.21,1.53,6.84s4.63,2.15,7.17,2.44a20.21,20.21,0,0,0,8.66-.53,8.93,8.93,0,0,0,6-5.87c.72-2.82-.83-6.23-3.64-7"/>
    <path class="cls-1" d="M425.23,326.2c-.91,6.53,2.26,13,6.2,18.25s8.76,9.95,12,15.69.07,17.46.07,17.46a77.28,77.28,0,0,1-31.36,10.59c-5.36.58-10.85.62-16,2.28-3.19,1-6.35,2.7-9.68,2.37s-6.19-2.65-9.18-4.29c-5.88-3.24-12.77-3.92-19.37-5.14s-13.51-3.3-17.86-8.41l-2.71-3.19a19.55,19.55,0,0,0,9.73,5.51c3.65.82,7.44.58,11.17.63a70.78,70.78,0,0,1,23.62,4.39,27.14,27.14,0,0,0,6.24,1.87c4,.46,7.91-1.58,11.61-3.23"/>
    <path class="cls-1" d="M338.48,372.52c1.8,5.92,5.95,10.84,10.46,15.08a69.54,69.54,0,0,0,26.95,16.18c10.11,3.09,21.21,3.31,31.17-.21,6.27-2.22,11.93-5.83,17.54-9.41,5.95-3.81,12.22-8,15.19-14.37"/>
    <path class="cls-1" d="M264.72,262.5l7.43,81.64c1.19,13,2.52,26.43,9.21,37.61"/>
    <path class="cls-1" d="M238.66,304.77c-18.76-2-33.25-14.79-39.7-32.53-2.92-8.05-3.81-16.84-7.69-24.48a34.65,34.65,0,0,0-18.49-16.55l-47.4,19.57c26.78-3,49.64-20.27,69.53-38.45S233.85,174,258.43,163"/>
    <path class="cls-1" d="M170,738.93c-14.18-9.11-20-27.69-18.11-44.44,2.06-18.24,11.71-34.76,21.49-50.15,8.88-14,18.73-27.3,28.91-40.36a90.21,90.21,0,0,0,13.6-24.45l12.28-33.39a89.39,89.39,0,0,0,5.47-39.64c-1.12-11.16,3.87-25.25-3.23-34.27-4.08-5.18-10.95-7-17.11-9.32-27.23-10.32-46.09-34.84-63.21-58.39C103,339.66,57.3,272.27,31.65,196.32c-3.12-9.22-5.74-19.79-3.15-28.74a17.89,17.89,0,0,1,6.23-9.09c7.63-5.94,28.35-21.55,43-27.63Q219.21,72.13,364.36,22.92c15.05-5.1,30.62-10.19,46.48-9.05,23.36,1.7,43.43,16.51,62,30.74,1.69,1,10.17,11.46,19.15,15.31,9.14,3.91,19.09,7.19,25.6,14.7,4.68,5.41,7,12.43,11,18.39,4.31,6.51,10.46,11.63,14.78,18.14,3,4.6,2.48,9.71-.48,16.2a25.38,25.38,0,0,0-.48,19.67l11.27,32.45a53.18,53.18,0,0,0,31.43,32.39c13.16,4.95,22.17,13.67,26.78,25.17a59.65,59.65,0,0,1-4.62,52.79c-6.85,11-17.82,21.29-16.74,34.23.94,11.14,10.88,19.45,21.14,23.9s21.58,6.4,31.28,11.95,17.79,16.51,15,27.34c-2.35,9.2-11.66,15-20.87,17.28s-18.9,2-28.14,4.19-18.66,7.66-21.38,16.75c-3.33,11.17,4.53,23.1,2.3,34.53-2.39,12.31-16.13,19.7-28.67,19.3s-24.06-6.57-35.05-12.6l4.25,2.42"/>
    <path class="cls-1" d="M623.59,782.17A119.93,119.93,0,0,0,553,789.24c-11.43,4.85-23.58,14.33-22.12,26.66,1.16,9.75,11.05,16.61,20.81,17.54,11.16,1.06,22.28-4,30.5-11.58s13.86-17.61,18.41-27.85c18-40.42,20.35-85.78,22.48-130-4.63,7-6.83,15.19-9.85,23s-7.27,15.63-14.44,19.9-17.89,3.48-22.34-3.58c-8.12-12.89,10.24-29.67,4.79-43.89-2.89,10.49-5.86,21.17-11.84,30.26S553.87,706.21,543,706.77s-22.31-7.52-23-18.38c-.62-10.37,7.81-18.93,16.22-25s18-11.91,21.83-21.57"/>
    <path class="cls-1" d="M508.41,259.88c2.82,6.81,3.09,14.39,3,21.77-.41,24.44-4.63,48.66-9.9,72.53-2.13,9.64-4.45,19.29-8.41,28.33S478.77,404,478.77,404c-15.3,17.46-32.75,33.64-53.8,43.43s-46.21,12.58-67.53,3.38c-12.23-5.28-22.54-14.11-32.57-22.88-16.53-14.46-33.11-29.41-44.75-48.05l11.49,20.4c7.86,22.37,7.35,47.18,1,70s-18.3,43.84-32.69,62.69c-8.42,11-17.81,21.58-23.64,34.18s-7.6,28.09-.52,40c6.21,10.5,17.83,16.32,27.05,24.32,6.38,5.53,5.76,21.29,2.71,34a14.69,14.69,0,0,0,10.73,17.76l40.15,15.18c6.44,2.44,3.25,12.29-3.33,10.28-4-1.21-8-4-13.71-9.15-10.75-9.6-12.66-26-22.27-36.72-10-11.18-26.22-14.08-38.81-22.24-18-11.68-27.37-33.88-27.65-55.36S218,542.84,228,523.8s22.28-36.76,32.37-55.72c7-13.11,13-27.29,12.93-42.13-.15-31.39-26.63-56.37-34.37-86.79-6.25-24.54,1-52.06,18.49-70.39a6.93,6.93,0,0,0,1.84-3.58l4.18-24c-4.73-2.77-3-10.19.53-14.38,3.84-4.55,9.41-8.53,9.08-14.81-.3-5.9-5.74-10.18-11.63-9.69-10.6.89-15.22,11.95-13.86,21.29,1,7.14,4.82,13.58,6.7,20.56s1.23,15.6-4.66,19.78c5,4.91,14.06,1.74,17.75-4.19s3.69-13.34,4.13-20.31a134.09,134.09,0,0,1,40.17-87C335.1,129.69,339.67,122,372.34,121l.05,0a6.73,6.73,0,0,0,1.63-8.29c-5.33-10.37-10.51-31.81-13.35-14.7a20.15,20.15,0,0,0,2.64,14c3.81,6.06,10,10.17,16.48,13.25s13,5.22,19.25,8.44c24.28,12.53,38.12,38.39,50.78,62.59s27.25,49.86,52.08,61.27c10,4.59,21.78,6.45,32,2.34,7.28-2.93,13.11-8.63,18-14.74,7.58-9.41,13.6-20.53,14.64-32.57,1.27-14.77-5-29-11.44-42.39-4.27-8.87-8.76-17.79-15.35-25.1s-15.61-12.93-25.44-13.38c-14-.65-26.25,8.91-39.67,13.05a53.74,53.74,0,0,1-52.66-13c-6.32-6.3-10.91-14.07-16.2-21.26s-11.6-14.06-19.89-17.36c-6.17-2.46-13.64-2.42-19.36.63a11.26,11.26,0,0,1-11.88-1c-6.27-4.59-15.79-10.91-23.4-13.25-12.51-3.83-26.42-4.24-38.39,1-21,9.21-31.41,33.39-33.53,56.18-2.1,22.53,2.1,42.58,1.09,65.11a.19.19,0,0,0,.35.1l17.42-46.46a145.26,145.26,0,0,1,21.88-38.85L327.9,81.2a22.31,22.31,0,0,1,3.34-4.55c14-14.81,36.2-29.73,55.73-33,20.51-3.41,42.71,1.86,58.24,15.68,14.33,12.75,23.1,32.27,40.59,40.15,6.37,2.88,13.38,3.91,20.09,5.86s13.5,5.09,17.44,10.85,5.39,13.29-.17,17.52"/>
    <path class="cls-1" d="M428,802.72c12.52-1.14,25.66-2.49,36-9.68s16.23-22.3,9.2-32.71c-5.9-8.73-19-11.93-20-23.59a17,17,0,0,1,5.35-13.62c8.11-7.84,19.23-8.59,29.8-9,8.44-.35,17.21-.68,24.73-4.54,14.47-7.43,19.66-28.51,10.29-41.8-8.17-11.61-24.06-16-31.74-28-6.37-9.88-5.47-23.43.72-33.43s16.95-16.62,28.35-19.53c5.78-1.48,12.16-2,17.35,1.61a9.83,9.83,0,0,1,4.31,8.48c-.51,8.5-11.91,10.65-19.58,7.77-13.6-5.11-22.67-19.07-24.38-33.5s3.1-29,10.82-41.35c7.15-11.42,13.12-3.54,14.18,4,.74,5.27-6,8.15-9.44,4.11l-8.59-10.07a6.44,6.44,0,0,0-4.22-2.81,31.21,31.21,0,0,0-9.79-.12c-12.22,1.83-17.75-3-24.7-9.52a18.93,18.93,0,0,1-6-11.31c-2.29-17.65,21.25-24.79,25.26-40.78,3.52-14-9.58-28.77-4.83-42.45,2.31-6.66,8.38-11.27,11.9-17.39s5.28-15-1.61-16.51"/>
    <path class="cls-1" d="M425.13,680.39c3.26,4.49,10.61,3.84,14.75.17s5.9-9.29,7.48-14.6l13.38-45.06c-1.19,6.18-2.37,12.62-.71,18.69s7.08,11.61,13.36,11.18C478,650.46,482,647,484.14,643s3-8.74,3.7-13.31q-.16,17.39.16,34.78c.15,8.05.71,17,9.59,21.05a18.12,18.12,0,0,0,8,1.54c6.55-.18,12.33-3,17.85-6.22a1.72,1.72,0,0,1,2.54,1.86l-.7,3.12a.57.57,0,0,1-1.12-.16l3.79-57"/>
    <path id="draw" class="cls-1" d="M623.52,782.15,878.19,873c149.79,53.43,304.22,109.64,420,218.68,49.79,46.9,93.2,109,89.54,177.33-2.33,43.65-23.58,83.73-44.34,122.19-68.29,126.46-148.41,251.9-206.89,383.12-52.94,118.81-141.57,223.19-201.56,340.24-42.7,83.32-78.31,171.2-134.52,246.08-41.26,55-95,106.21-106,174.07-8.12,50.28,10,102.82,42.76,141.84s78.84,65.32,127.52,80.31c70.57,21.73,153.7,18.53,210.58-28.57,36.59-30.3,58.43-75.47,69.06-121.78s11-94.27,11.43-141.79c.29-36.65-2.86-79.92-34-99.3-34.16-21.27-78,.57-112,22.12C936.89,2433.73,858.46,2487,834.55,2570c-5.8,20.12-7.77,42.73,2.05,61.23s34.6,29.95,52.79,19.58c13.77-7.85,19.47-24.67,22.11-40.3,9.39-55.64-6.9-115.09-43.34-158.18a1902.42,1902.42,0,0,0,241.35-393.86,60.18,60.18,0,0,0-11.53-66.73h0c-10.85-11.24-1.66-29.88,13.86-28.13,89.67,10.11,168.4,82.94,210.19,165.92,53.43,106,62.23,235.16,17.25,345.06-58,141.83-194.79,236.82-336.44,295.27S709.1,2858.3,567.42,2916.68c-34.61,14.26-68.7,30.65-99.78,51.63-33.53,22.63-53.1,52.89-81.68,79.42-64,59.43-143.81,97.36-204.63,162.65-60.26,64.7-106.53,146.22-112.84,234.41S102,3627.21,179.07,3670.47c74.93,42,168.72,30.93,249.09,61.28,45.75,17.27,89.16,52.82,96.68,101.15,4.76,30.65-5.47,61.42-15.56,90.75q-117.94,343-235.9,685.9C244.08,4562,174.7,4549.28,125,4574.7s-79.44,80.77-85,136.36,10,111.34,32.15,162.63c25.77,59.7,67.08,120.31,130.32,135.45,58.62,14,122.23-17.85,155.54-68.07s39.46-114.92,27.7-174c-6.36-32-20-65.86-48.92-81s-73.84,2.5-73.31,35.14c.55,33.92,45.92,58,38.78,91.17-6.9,32.09-52.32,33.36-83.89,24.39-30.37-8.63-62-21-80.24-46.71s-15.5-68.28,12.77-82.34c17.93-8.92,39.58-4.14,59-8.88,37.5-9.13,56.92-49.25,73.84-83.95s43.91-72.88,82.49-71.57c90.3,3.06,68.33,162.43,120.37,211.47,77.61,73.13,131.07,157.92,235.44,198.66,108.41,42.32,229.3,35.28,343.14,59.49-14.36,19.38-6.63,48.55,10.62,65.41s41.32,24.37,64.49,31.07c73.74,21.32,149.27,40.25,226,39.34s155.77-23.6,211.69-76.18c86.14-81,97.94-226.21,32.46-324.64S1413,4603.79,1298.37,4632.58c-70.58,17.73-135.65,62.65-169.83,126.89s-33.74,147.7,8,207.29,125.84,88.31,192.73,59.64S1433.1,4910.07,1400.6,4845s-132.49-85.81-183.94-34.35c-14.46,14.46-25.17,33.33-43,43.29-21.93,12.23-49,8.07-73.66,3.56-110.6-20.19-222.17-40.66-326-83.74-116.64-48.4-229-136.48-254.09-260.25-14.3-70.51,1.52-143.43,20.59-212.8,49-178.11,120.55-355.12,113.63-539.71-27-9.84-57.94,6.07-74.5,29.54s-22,52.77-27,81.08c-49.31,284.37-83.06,571.77-91.28,860.26-2.35,82.44-2.45,166.22,19.8,245.63,38.41,137.1,167.51,253.81,291.55,314.52l516,252.57c65.62,32.12,132.74,65.32,183,118.34s80.91,130.9,58.47,200.42c-23.1,71.54-93.81,115.59-161.78,147.7A1371.6,1371.6,0,0,1,939.1,6133.33c-48.16,5.5-99.87,9.7-137.55,40.21-49.11,39.77-57.92,110-63.08,173q-15.65,191.34-31.3,382.67c-2.59,31.59-5.1,64,3.54,94.48s30.93,59.18,61.85,66.15c31.87,7.18,78.3-1.9,86.61,29.69,4.44,16.88-8,34.73-3.84,51.68,4.79,19.39,27.71,27.11,47.22,31.39q63.32,13.91,127.24,24.78c42.44,7.22,85.91,13.44,128.38,6.35s84.42-29.59,105-67.43,13.22-91.61-22.63-115.45c58-5,122.68-13.38,159.19-58.75,27.29-33.9,31.62-80.24,34.85-123.65,7.63-102.64,15.19-206.7-4.21-307.78s-69.31-200.55-154.86-257.77c-59-39.48-141.25-54.89-200.12-15.2-40.9,27.58-63,76.78-69.17,125.72s1.75,98.44,9.61,147.13c-13-38.85-71.44-45.77-102.31-18.83s-37.21,73.32-29.72,113.6,26.27,77.5,38.08,116.73a348.46,348.46,0,0,1-3.5,210.2c-10.17,30.12-24.65,62.28-14.31,92.34,17.74,51.56,88.56,54.51,142.67,47.78,37.6-4.68,76.82-9.95,108.07-31.38s51.27-64.4,34.38-98.32c-13.69-27.51-46.29-40.81-62.67-66.8-23.73-37.65-6.18-87,14.24-126.5,30-58.08,66.27-116.14,70.21-181.39s-40-139.31-105.39-139.88c-47.54-.41-88.18,38.45-105.51,82.71s-16.45,93.24-16,140.78c1.18,135.55-3.79,273.12-43.83,402.62s-119,251.62-236.85,318.68"/>
  </g>
</svg>
